<?xml version="1.0" encoding="utf-8"?>
<!-- Generator: Adobe Illustrator 19.0.0, SVG Export Plug-In . SVG Version: 6.00 Build 0)  -->
<svg version="1.1" id="Layer_1" xmlns="http://www.w3.org/2000/svg" xmlns:xlink="http://www.w3.org/1999/xlink" x="0px" y="0px"
	 viewBox="0 0 96 96" style="enable-background:new 0 0 96 96;" xml:space="preserve">
<style type="text/css">
	.st0{fill:#ffffff;}
</style>
<g id="XMLID_1_">
	<path id="XMLID_6_" class="st0" d="M48,20.5c-15.2,0-27.5,12.3-27.5,27.5S32.8,75.5,48,75.5S75.5,63.2,75.5,48S63.2,20.5,48,20.5z
		 M50.6,55.2c-2.8,4-8.6,5.2-13,3.5c-4.5-1.7-7.7-6.4-7.3-11.3c0.1-5.9,5.5-11.1,11.4-10.9c2.8-0.1,5.5,1.1,7.7,2.8
		c-0.9,1.1-1.9,2.1-2.9,3c-2.6-1.8-6.3-2.3-8.9-0.2c-3.7,2.6-3.9,8.7-0.3,11.4c3.5,3.2,10.1,1.6,11-3.2c-2.2,0-4.4,0-6.6-0.1
		c0-1.3,0-2.6,0-3.9c3.6,0,7.3,0,11,0C52.9,49.4,52.5,52.7,50.6,55.2z M66.3,49.6c-1.1,0-2.2,0-3.3,0c0,1.1,0,2.2,0,3.3
		c-1.1,0-2.2,0-3.3,0c0-1.1,0-2.2,0-3.3c-1.1,0-2.2,0-3.3,0c0-1.1,0-2.2,0-3.3c1.1,0,2.2,0,3.3,0c0-1.1,0-2.2,0-3.3
		c1.1,0,2.2,0,3.3,0c0,1.1,0,2.2,0,3.3c1.1,0,2.2,0,3.3,0C66.3,47.4,66.3,48.5,66.3,49.6z"/>
</g>
</svg>
